<svg width="20" height="20" viewBox="0 0 20 20" fill="none" xmlns="http://www.w3.org/2000/svg">
<g id="Frame">
<path id="Vector" d="M10.1337 9.05573C10.0503 9.0474 9.95033 9.0474 9.85866 9.05573C7.87529 8.98906 6.30029 7.36406 6.30029 5.36406C6.30029 3.3224 7.95029 1.66406 10.0003 1.66406C12.042 1.66406 13.7003 3.3224 13.7003 5.36406C13.692 7.36406 12.117 8.98906 10.1337 9.05573Z" stroke="#BABEC3" stroke-width="1.5" stroke-linecap="round" stroke-linejoin="round"/>
<path id="Vector_2" d="M5.9666 12.1359C3.94993 13.4859 3.94993 15.6859 5.9666 17.0276C8.25827 18.5609 12.0166 18.5609 14.3083 17.0276C16.325 15.6776 16.325 13.4776 14.3083 12.1359C12.025 10.6109 8.2666 10.6109 5.9666 12.1359Z" stroke="#BABEC3" stroke-width="1.5" stroke-linecap="round" stroke-linejoin="round"/>
</g>
</svg>
