<svg width="19" height="18" viewBox="0 0 19 18" fill="none" xmlns="http://www.w3.org/2000/svg">
<g id="Frame" clip-path="url(#clip0_505_1219)">
<path id="Vector" d="M9.5 16.5C5.35775 16.5 2 13.1423 2 9C2 4.85775 5.35775 1.5 9.5 1.5C13.6423 1.5 17 4.85775 17 9C17 13.1423 13.6423 16.5 9.5 16.5ZM9.5 15C11.0913 15 12.6174 14.3679 13.7426 13.2426C14.8679 12.1174 15.5 10.5913 15.5 9C15.5 7.4087 14.8679 5.88258 13.7426 4.75736C12.6174 3.63214 11.0913 3 9.5 3C7.9087 3 6.38258 3.63214 5.25736 4.75736C4.13214 5.88258 3.5 7.4087 3.5 9C3.5 10.5913 4.13214 12.1174 5.25736 13.2426C6.38258 14.3679 7.9087 15 9.5 15ZM8.75 5.25H10.25V6.75H8.75V5.25ZM8.75 8.25H10.25V12.75H8.75V8.25Z" fill="#D82C0D"/>
</g>
<defs>
<clipPath id="clip0_505_1219">
<rect width="18" height="18" fill="white" transform="translate(0.5)"/>
</clipPath>
</defs>
</svg>
