<svg width="20" height="20" viewBox="0 0 20 20" fill="none" xmlns="http://www.w3.org/2000/svg">
<path d="M18.521 1.48029C18.3335 1.29282 18.0792 1.1875 17.814 1.1875C17.5488 1.1875 17.2945 1.29282 17.107 1.48029L1.48 17.1093C1.38449 17.2015 1.30831 17.3119 1.2559 17.4339C1.20349 17.5559 1.1759 17.6871 1.17475 17.8199C1.1736 17.9527 1.1989 18.0843 1.24918 18.2072C1.29946 18.3301 1.37371 18.4418 1.4676 18.5357C1.5615 18.6296 1.67315 18.7038 1.79605 18.7541C1.91894 18.8044 2.05062 18.8297 2.1834 18.8285C2.31618 18.8274 2.4474 18.7998 2.5694 18.7474C2.69141 18.695 2.80175 18.6188 2.894 18.5233L18.52 2.89429C18.7075 2.70676 18.8128 2.45245 18.8128 2.18729C18.8128 1.92212 18.7075 1.66781 18.52 1.48029H18.521ZM3.108 13.5003L5.668 10.9403C5.59501 10.6329 5.5571 10.3182 5.555 10.0023C5.555 7.62329 7.545 5.69329 10 5.69329C10.286 5.69329 10.564 5.72529 10.835 5.77529L12.038 4.57329C11.3644 4.46169 10.6828 4.40484 10 4.40329C3.44 4.40229 0 9.23329 0 10.0023C0 10.4253 1.057 12.0923 3.108 13.4993V13.5003ZM16.895 6.50729L14.333 9.06729C14.402 9.36929 14.444 9.68029 14.444 10.0023C14.444 12.3813 12.455 14.3093 10 14.3093C9.716 14.3093 9.44 14.2773 9.171 14.2283L7.967 15.4313C8.609 15.5353 9.283 15.6013 10 15.6013C16.56 15.6013 20 10.7683 20 10.0023C20 9.57829 18.944 7.91229 16.895 6.50729Z" fill="#BABEC3"/>
</svg>
